<?xml version="1.0" encoding="UTF-8"?>
<svg xmlns="http://www.w3.org/2000/svg" xmlns:xlink="http://www.w3.org/1999/xlink" width="40px" height="40px" viewBox="0 0 40 40" version="1.1">
<g id="surface1">
<path style=" stroke:none;fill-rule:nonzero;fill:rgb(0%,0%,0%);fill-opacity:1;" d="M 21.757812 16.84375 L 1.796875 36.796875 C 1.0625 37.53125 1.0625 38.71875 1.796875 39.445312 C 2.53125 40.171875 3.71875 40.179688 4.445312 39.445312 L 10.289062 33.601562 C 10.867188 33.960938 11.484375 34.242188 12.148438 34.421875 C 15.648438 35.375 21.09375 35.507812 26.40625 31.984375 C 27.359375 31.351562 26.859375 30 25.71875 30 L 24.460938 30 C 24.0625 30 23.742188 29.679688 23.742188 29.28125 C 23.742188 28.960938 23.953125 28.6875 24.25 28.59375 L 31.882812 26.304688 C 32.148438 26.226562 32.382812 26.0625 32.539062 25.828125 C 32.882812 25.328125 33.210938 24.820312 33.523438 24.296875 C 34.007812 23.492188 33.40625 22.5 32.46875 22.5 L 29.453125 22.5 C 29.054688 22.5 28.734375 22.179688 28.734375 21.78125 C 28.734375 21.460938 28.945312 21.1875 29.242188 21.09375 L 35.5625 19.195312 C 35.921875 19.085938 36.21875 18.820312 36.359375 18.46875 C 38.632812 12.734375 39.671875 6.726562 39.992188 2.875 C 40.054688 2.101562 39.757812 1.34375 39.210938 0.796875 C 38.664062 0.25 37.90625 -0.046875 37.132812 0.015625 C 30.585938 0.546875 17.851562 3.164062 10.734375 10.28125 C 4.476562 16.539062 4.429688 23.617188 5.570312 27.84375 C 5.734375 28.460938 6.507812 28.59375 6.960938 28.140625 L 19.8125 15.296875 C 20.296875 14.8125 21.09375 14.8125 21.578125 15.296875 C 22 15.71875 22.054688 16.359375 21.75 16.84375 Z M 21.757812 16.84375 "/>
</g>
</svg>
